<svg version="1.1" xmlns="http://www.w3.org/2000/svg" xmlns:xlink="http://www.w3.org/1999/xlink" width="48" height="48"><defs><linearGradient x1="12.76675" y1="15.40986" x2="42.14376" y2="39.50064" gradientUnits="userSpaceOnUse" id="color-1"><stop offset="0.38" stop-color="#000000" stop-opacity="0.67"></stop><stop offset="1" stop-color="#000000" stop-opacity="0"></stop></linearGradient><filter id="dropshadow-base"><feColorMatrix type="matrix" values="0 0 0 0 0  0 0 0 0 0  0 0 0 0 0  0 0 0 .8 0"></feColorMatrix> <feOffset dx="0" dy="1"></feOffset> <feGaussianBlur stdDeviation="1"></feGaussianBlur> <feComposite in="SourceGraphic"></feComposite></filter><filter id="dropshadow-banner" x="-10%" y="-10%" width="120%" height="130%"><feColorMatrix type="matrix" values="0 0 0 0 0  0 0 0 0 0  0 0 0 0 0  0 0 0 .4 0"></feColorMatrix> <feOffset dx="0" dy="1"></feOffset> <feGaussianBlur stdDeviation="0.5"></feGaussianBlur> <feComposite in="SourceGraphic"></feComposite></filter></defs><g fill="none" fill-rule="nonzero" stroke="none" stroke-width="none" stroke-linecap="butt" stroke-linejoin="miter" stroke-miterlimit="10" stroke-dasharray="" stroke-dashoffset="0" font-family="none" font-weight="none" font-size="none" text-anchor="none" style="mix-blend-mode: normal"><path d="M7,43c-1.10457,0 -2,-0.89543 -2,-2v-34c0,-1.10457 0.89543,-2 2,-2h34c1.10457,0 2,0.89543 2,2v34c0,1.10457 -0.89543,2 -2,2z" id="base 1 5 1 1 1" fill="#3982b8" stroke-width="1"></path><path d="M34.2144,31.57129v1.01884h1.01885l0,-2.34041h-2.34042zM42.14376,31.57129v7.92935h-6.60779l-1.32157,-1.32157v1.32157h-6.60779l-1.32156,-1.32156v1.32156h-6.60779l-6.91051,-6.91051v-17.18027h6.60779l1.32156,1.32156v-1.32156h14.53715l6.91051,6.91051v7.92935h-1.32157zM35.23325,23.33922v-1.01884h-7.62665v1.01884z" fill="url(#color-1)" stroke-width="1"></path><path d="M20.6961,32.59013h6.6078v-7.92935h-6.6078zM12.76675,32.59013h6.6078v-17.18027h-6.6078zM28.62546,32.59013h6.6078v-7.92935h-6.6078zM20.6961,15.40987v7.92935h14.53715v-7.92935z" fill="none" stroke-width="0"></path><path d="M20.6961,24.66078h6.6078v7.92935h-6.6078zM12.76675,15.40987h6.6078v17.18027h-6.6078zM28.62546,24.66078h6.6078v7.92935h-6.6078zM35.23325,15.40987v7.92935h-14.53715v-7.92935z" fill="#ffffff" stroke-width="0"></path><path d="M2,24c0,-12.15026 9.84974,-22 22,-22c12.15026,0 22,9.84974 22,22c0,12.15026 -9.84974,22 -22,22c-12.15026,0 -22,-9.84974 -22,-22z" id="base 1 1 1" fill="none" stroke-width="1"></path><g fill="#000000" stroke-width="1" font-family="Roboto, sans-serif" font-weight="400" font-size="14" text-anchor="start"></g><path d="M13,36v-12h30v12z" id="banner 1" fill="#4b4bd6" stroke-width="1" filter="url(#dropshadow-banner)"></path><text x="28" y="33" fill="#ffffff" stroke-width="1" font-family="sans-serif" font-weight="bold" font-size="8" text-anchor="middle">DEV</text><rect x="2" y="2" width="44" height="22" fill="none" stroke-width="1"></rect><path d="M2,24v-22h44v22z" fill="none" stroke-width="1"></path><path d="M2,24v-22h44v22z" fill="none" stroke-width="1"></path><path d="M2,24v-22h44v22z" fill="none" stroke-width="1"></path><path d="M2,24v-22h44v22z" fill="none" stroke-width="1"></path></g></svg>